<svg xmlns="http://www.w3.org/2000/svg" width="74" height="73" viewBox="0 0 74 73"><defs><clipPath id="efspa"><path fill="#fff" d="M0 73V0h74v73zm3.835-36.691c0 18.293 14.829 33.122 33.122 33.122s33.122-14.83 33.122-33.122c0-18.293-14.83-33.122-33.122-33.122-18.293 0-33.122 14.83-33.122 33.122z"/></clipPath></defs><g><g><path fill="#fff" d="M36.957 3.187c18.293 0 33.122 14.83 33.122 33.122 0 18.293-14.83 33.122-33.122 33.122-18.293 0-33.122-14.83-33.122-33.122 0-18.293 14.829-33.122 33.122-33.122z"/><path fill="none" stroke="#fed136" stroke-linecap="round" stroke-linejoin="round" stroke-miterlimit="50" stroke-width="6" d="M36.957 3.187c18.293 0 33.122 14.83 33.122 33.122 0 18.293-14.83 33.122-33.122 33.122-18.293 0-33.122-14.83-33.122-33.122 0-18.293 14.829-33.122 33.122-33.122z" clip-path="url(&quot;#efspa&quot;)"/></g><g><path fill="#fed136" d="M36.685 15.633c5.154 0 9.333 3.656 9.333 8.166v9.333h1.166a3.5 3.5 0 0 1 3.5 3.5v12.833a3.5 3.5 0 0 1-3.5 3.5H26.185a3.5 3.5 0 0 1-3.5-3.5V36.633a3.5 3.5 0 0 1 3.5-3.5h1.167v-9.334c0-4.51 4.178-8.166 9.333-8.166zm-4.667 8.166v8.166c0 .41.094.802.266 1.167h8.802c.172-.365.265-.758.265-1.167V23.8c0-1.932-2.089-3.5-4.666-3.5-2.577 0-4.667 1.568-4.667 3.5zm2.334 23.332a2.333 2.333 0 1 0 4.666 0v-1.79a4.666 4.666 0 1 0-4.666 0z"/></g></g></svg>