<svg xmlns="http://www.w3.org/2000/svg" width="74" height="73" viewBox="0 0 74 73"><defs><clipPath id="3f4ba"><path fill="#fff" d="M0 73V0h74v73zm3.91-36.689c0 18.293 14.83 33.122 33.123 33.122s33.122-14.83 33.122-33.122c0-18.293-14.83-33.122-33.122-33.122C18.74 3.19 3.91 18.02 3.91 36.311z"/></clipPath></defs><g><g><path fill="#fff" d="M37.033 3.19c18.293 0 33.122 14.828 33.122 33.121 0 18.293-14.83 33.122-33.122 33.122-18.293 0-33.122-14.83-33.122-33.122C3.91 18.018 18.74 3.19 37.033 3.19z"/><path fill="none" stroke="#fed136" stroke-linecap="round" stroke-linejoin="round" stroke-miterlimit="50" stroke-width="6" d="M37.033 3.19c18.293 0 33.122 14.828 33.122 33.121 0 18.293-14.83 33.122-33.122 33.122-18.293 0-33.122-14.83-33.122-33.122C3.91 18.018 18.74 3.19 37.033 3.19z" clip-path="url(&quot;#3f4ba&quot;)"/></g><g><path fill="#fed136" d="M17.755 29.89c0-1.901 1.54-3.442 3.442-3.442h3.884c.06-.221.15-.438.27-.646l4.13-7.153a2.753 2.753 0 1 1 4.77 2.753l-2.914 5.046h11.382l-2.913-5.046a2.753 2.753 0 0 1 4.77-2.753l4.13 7.153c.119.208.209.425.27.646h3.884a3.442 3.442 0 1 1 0 6.883H21.197a3.442 3.442 0 0 1-3.442-3.442zm34.522 25.468H21.78l-1.191-20.65h32.88zM35.652 41.59v8.26a1.377 1.377 0 0 0 2.753 0v-8.26a1.376 1.376 0 0 0-2.753 0zm8.26 0v8.26a1.377 1.377 0 0 0 2.753 0v-8.26a1.376 1.376 0 0 0-2.754 0zm-16.52 0v8.26a1.377 1.377 0 1 0 2.753 0v-8.26a1.376 1.376 0 0 0-2.753 0z"/></g></g></svg>