<svg xmlns="http://www.w3.org/2000/svg" width="73" height="73" viewBox="0 0 73 73"><defs><clipPath id="iz0ha"><path fill="#fff" d="M0 73V0h73v73zm3.793-36.683c0 18.292 14.83 33.122 33.122 33.122 18.293 0 33.122-14.83 33.122-33.122 0-18.294-14.83-33.122-33.122-33.122-18.293 0-33.122 14.828-33.122 33.122z"/></clipPath></defs><g><g><path fill="#fff" d="M36.915 3.195c18.293 0 33.122 14.828 33.122 33.122 0 18.292-14.83 33.122-33.122 33.122-18.293 0-33.122-14.83-33.122-33.122 0-18.294 14.83-33.122 33.122-33.122z"/><path fill="none" stroke="#fed136" stroke-linecap="round" stroke-linejoin="round" stroke-miterlimit="50" stroke-width="6" d="M36.915 3.195c18.293 0 33.122 14.828 33.122 33.122 0 18.292-14.83 33.122-33.122 33.122-18.293 0-33.122-14.83-33.122-33.122 0-18.294 14.83-33.122 33.122-33.122z" clip-path="url(&quot;#iz0ha&quot;)"/></g><g><path fill="#fed136" d="M24.356 19.9h26.908a4.036 4.036 0 0 1 4.036 4.036v17.49c0 .472-.081.924-.23 1.345h.23v2.69h-4.036V23.937H24.356v21.526H20.32v-2.69h.23a4.03 4.03 0 0 1-.23-1.346v-17.49a4.036 4.036 0 0 1 4.036-4.036zM20.32 48.152H55.3a2.691 2.691 0 0 1 2.69 2.691c0 1.486-2.55 2.691-4.036 2.691H21.666c-1.486 0-4.036-1.205-4.036-2.69a2.691 2.691 0 0 1 2.69-2.692zm12.109 3.364c0 .371.602.673 1.345.673h8.072c.743 0 1.346-.302 1.346-.673 0-.372-.603-.673-1.346-.673h-8.072c-.743 0-1.345.301-1.345.673zm-3.652-15.832l1.894-1.903a1.336 1.336 0 0 1 1.894 0l2.483 2.494 8.002-8.038a1.335 1.335 0 0 1 1.894 0l1.895 1.902a1.35 1.35 0 0 1 0 1.903L36.42 42.506a1.335 1.335 0 0 1-1.65.194 1.334 1.334 0 0 1-1.259-.357l-4.735-4.756a1.35 1.35 0 0 1 0-1.903z"/></g></g></svg>