<svg xmlns="http://www.w3.org/2000/svg" width="234" height="235" viewBox="0 0 234 235"><defs><clipPath id="wzrka"><path fill="#fff" d="M0 235V0h234v235zm7.014-117.23c0 60.753 49.25 110.003 110.003 110.003S227.02 178.523 227.02 117.77 177.77 7.767 117.017 7.767 7.014 57.017 7.014 117.77z"/></clipPath></defs><g><g><path fill="#111" d="M117.017 7.767c60.753 0 110.003 49.25 110.003 110.003s-49.25 110.003-110.003 110.003S7.014 178.523 7.014 117.77 56.264 7.767 117.017 7.767z"/><path fill="none" stroke="#fff" stroke-linecap="round" stroke-linejoin="round" stroke-miterlimit="50" stroke-width="14" d="M117.017 7.767c60.753 0 110.003 49.25 110.003 110.003s-49.25 110.003-110.003 110.003S7.014 178.523 7.014 117.77 56.264 7.767 117.017 7.767z" clip-path="url(&quot;#wzrka&quot;)"/></g></g></svg>